<?xml version="1.0" encoding="utf-8"?>
<!-- Generator: Adobe Illustrator 23.0.4, SVG Export Plug-In . SVG Version: 6.00 Build 0)  -->
<svg version="1.1" id="Layer_1" xmlns="http://www.w3.org/2000/svg" xmlns:xlink="http://www.w3.org/1999/xlink" x="0px" y="0px"
	 viewBox="0 0 1466 119" style="enable-background:new 0 0 1466 119;" xml:space="preserve">
<style type="text/css">
	.st0{fill:#F47920;}
	.st1{fill:#1D1C1D;}
	.st2{fill:#2D2D2E;}
	.st3{fill:#E5E6E7;}
</style>
<polygon class="st0" points="855.3,-247.1 1482.7,-247.1 1482.7,674.2 855.3,674.2 "/>
<polygon class="st1" points="-50.6,-247.1 1149.6,-247.1 855.3,53.5 855.3,674.2 -50.6,674.2 "/>
<g>
	<path d="M1191.7,125.8c2.8-0.4,26.4-3.6,42.5-14.2c0.1-0.1,0.1-0.3,0-0.4c-5.5-4.2-95.5-74.2-120.9-132.7c0-0.1,0-0.2,0-0.2
		c2.2-3.5,59.1-90.5,64.7-167.5c0-0.2-0.2-0.3-0.3-0.2c-5.9,1.8-88.8,27-215.7,29.1c-4.8,0-9.7-0.7-14.2-2.3
		c-14.5-5-48.4-16.5-63.2-19.5c-18.9-3.7-100.1,28.8-103,29.9l0,0c0,0,0,0-0.1,0c0,0,0,0-0.1,0l0,0c-2.8-1.1-84.3-33.2-103.2-29.4
		c-14.8,3-48.6,14.6-63.1,19.8c-4.6,1.6-9.3,2.4-14.3,2.4c-126.8-1.5-210-26.3-215.8-28.1c-0.2,0-0.3,0.1-0.3,0.3
		c6,76.9,63.3,163.7,65.6,167.2c0.1,0.1,0.1,0.1,0,0.2c-25,58.6-114.8,129-120.2,133.2c-0.1,0.1-0.1,0.3,0.1,0.4
		c16.3,10.7,39.9,13.7,42.7,14.1c0.2,0,0.2,0.1,0.2,0.3c-41.3,130,24.1,235.4,28.2,241.9c0.1,0.1,0.3,0.1,0.4-0.1
		c11.6-18.7,27.1-33.2,29.2-35c0.1-0.1,0.3-0.1,0.4,0c1.5,3.3,17.3,35.9,53.7,64.8c36.3,28.9,56.3,56.9,58.4,60
		c0.1,0.1,0.3,0.1,0.4-0.1c7.7-10.6,9.9-27.3,10.3-30c0-0.2,0.2-0.3,0.4-0.2c66.8,40.8,28.1,110.8,25.9,114.6c0,0.1,0,0.2,0.1,0.3
		c20.3,15.6,42.3,20.9,43.8,21.1c0.1,0,0.1,0,0.2,0.1c58.1,98.1,155.6,125.1,158.9,125.9l0,0l0,0l0,0l0,0l0,0l0,0l0,0l0,0l0,0l0,0
		l0,0l0,0l0,0l0,0c3.3-0.9,100.8-28.4,158.3-126.7c0-0.1,0.1-0.1,0.1-0.1c1.7-0.4,23.5-5.8,43.7-21.4c0.1-0.1,0.1-0.2,0-0.3
		c-2.3-3.9-41.2-73.6,25.3-114.7c0.1-0.1,0.4,0,0.4,0.1c0.3,2.8,2.6,19.4,10.4,30c0.1,0.1,0.3,0.1,0.4,0
		c2.2-3.1,22.1-31.2,58.2-60.2c36.2-29.2,51.8-61.7,53.4-65c0.1-0.2,0.2-0.2,0.3-0.1c2.1,1.9,17.7,16.3,29.3,34.9
		c0.1,0.1,0.3,0.1,0.4,0c4.1-6.6,69-112.3,27.1-242.1C1191.5,125.9,1191.6,125.8,1191.7,125.8z"/>
	<g>
		<path class="st2" d="M936,43c-24.4,13-48.4,27-71.8,41.9c-0.4,0.3-0.4,1.1,0.1,1.2c16.5,6.7,32.5,5.3,46.8-6.7
			c9.9-8.3,19.6-24.3,25.7-35.6C937.1,43.3,936.6,42.7,936,43z M853.4,481.6c-2.4,1.7-6.1,3.5-7.6,4.2c-0.3,0.2-0.7-0.1-0.6-0.5
			c-1.4-47.4-15.5-61.5-19.4-64.5c-0.4-0.2-0.8,0-0.8,0.4c3.6,24.1-6.5,70.6-9.8,72.4c-3.4,1.7-17.3,7.5-31.8,7.6l0,0
			c-14.5,0-28.3-5.7-31.8-7.5c-3.4-1.7-13.7-48.2-10.2-72.3c0-0.4-0.4-0.8-0.7-0.5c-3.8,3-18,17.1-19.1,64.5c0,0.4-0.4,0.6-0.7,0.4
			c-1.5-0.7-5.1-2.5-7.7-4.1c-0.4-0.2-0.9,0-0.8,0.5c0.5,3.2,2.8,12,10.3,19c9.3,8.6,22.6,20.8,60.8,20.7l0,0
			c38.2-0.1,51.5-12.3,60.7-21c7.5-7,9.6-15.9,10.2-19C854.3,481.7,853.8,481.4,853.4,481.6z M881,305.1c-2,1.7-7.8,6.3-11.3,5.4
			c-4.3-1.2-68-30.2-86.9-30.2l0,0c-18.8,0-82.5,29.4-86.8,30.6c-3.5,1-9.3-3.7-11.4-5.4c-0.3-0.2-0.8-0.1-0.8,0.3
			c-0.9,6.5-5.2,48.3,26.9,87.4c0.3,0.3,0.9,0.2,0.9-0.3c0-9,0.7-59,2.8-66.6c2.4-8.4,44.8-26.4,68.3-26.4l0,0
			c23.5-0.1,66,17.7,68.4,26c2.2,7.6,3,57.7,3.2,66.6c0,0.5,0.6,0.7,0.9,0.3c31.8-39.3,27.4-81,26.5-87.6
			C881.7,305,881.3,304.9,881,305.1z M700.3,85.3c-23.5-14.8-47.6-28.7-71.9-41.7c-0.6-0.3-1.1,0.4-0.8,0.9
			c6.2,11.3,15.9,27.2,25.9,35.4c14.3,11.8,30.3,13.1,46.9,6.4C700.7,86.4,700.8,85.6,700.3,85.3z"/>
		<g>
			<path class="st3" d="M491.2,150.5C491.2,150.6,491.2,150.6,491.2,150.5L491.2,150.5C491.2,150.6,491.2,150.6,491.2,150.5z"/>
			<path class="st1" d="M1160.6,95.4c0.2,0,0.3-0.3,0.1-0.4c-32.9-25.3-103.5-117-107-121.6c-0.1-0.1-0.1-0.2,0-0.3
				c52.5-37,78.6-112.4,81.2-120.3c-0.1,0.2-0.3,0.5-0.5,0.7c0.5-0.6,0.6-1,0.7-1l0-0.1l0-0.1c-0.1-0.2-0.3-0.3-0.5-0.3
				c-52.5,18.5-149.2,30.7-153.4,31.2c-0.1,0-0.3,0.1-0.3,0.3c0,0.1,0,0.3,0.1,0.4c13,16.5,27,40.4,29.8,45.1l0,0.1l-0.1,0
				c-6.3-2.8-62.7-27.3-103.3-42.7l-0.1,0c-1.4-0.1-2.7,0-4.1-0.1l0,0c1.2,0,2.4,0,3.5,0c-20.4-7.7-36.7-13.2-40.4-12.1
				c-11.2,3.2-51.7,21.6-58,32c-1.2,2.1-3,7.9-5.1,16c0.2-0.2,0.4-0.4,0.8-0.5c-0.3,0.2-0.7,0.4-0.9,0.6l0,0l0,0.1
				c-1.7,6.9-3.8,16-6.2,26.8c0,0.1,0,0.3,0.1,0.4s0.2,0.1,0.4,0.1c12.9-1.4,25.7-5.3,35.2-10.9c14-8.1,16.7-16.8,16.4-22.5l0-0.1
				c1.7-0.1,17.2-0.7,36.6,3.1c25.1,5,45.3,14.9,59.9,29.5l0,0.1c0,0,0,0-0.1,0c-5.5-1.3-54.4-12.9-77.2-8.2c-0.1,0-0.2,0.1-0.3,0.3
				c-0.4,1-4,9.3-15.6,18.8c-15,12.3-36,21-62.5,25.6c-0.2,0-0.3,0.2-0.3,0.4c-3.8,19.4-6.8,35.6-7.3,38.6c0,0,0,0,0,0.1l-0.1,0l0,0
				c-0.5-3.1-3.6-19.1-7.6-38.5c-0.1-0.2-0.2-0.3-0.4-0.3c-26.5-4.5-47.5-13-62.6-25.3c-11.6-9.4-15.3-17.8-15.7-18.8
				c-0.1-0.1-0.2-0.2-0.3-0.2c-22.8-4.6-71.6,7.2-77.1,8.6l-0.1,0l0-0.1C632.8-64.9,652.9-74.9,678-80c19.3-3.9,34.9-3.3,36.6-3.3
				c0,0,0,0,0,0.1c-0.3,5.8,2.4,14.5,16.5,22.5c9.6,5.5,22.5,9.4,35.3,10.7c0.1,0,0.3-0.1,0.3-0.2c0.1-0.1,0.1-0.3,0.1-0.4
				c-2.4-10.8-4.5-19.9-6.2-26.8l0-0.1l-0.1,0c-0.1,0-0.1-0.1-0.2-0.1c-2.1-8.1-3.9-13.9-5.2-16c-6.3-10.3-47-28.6-58.1-31.7
				c-3.6-1-19.8,4.4-40.3,12.3c1.2-0.1,2.4,0,3.5-0.1l0,0c-1.4,0-2.7,0-4,0l-0.1,0C615.6-97.4,559.3-72.5,553-69.8c0,0,0,0-0.1,0
				c0,0,0,0,0-0.1c2.7-4.6,16.6-28.7,29.5-45.3c0.1-0.1,0.1-0.3,0-0.4c-0.1-0.1-0.2-0.2-0.4-0.2c-4.1-0.5-100.9-12.1-153.5-30.4
				c-0.2,0-0.4,0.1-0.5,0.2l0,0.1l0.1,0.1c0,0,0.1,0.1,0.3,0.3l0,0c2.7,7.9,29.1,83.1,81.8,119.8c0.1,0.1,0.2,0.2,0.1,0.3
				c-3.5,4.6-73.6,96.7-106.3,122.2c-0.2,0.2,0,0.4,0.2,0.4l25.2-0.1c0.2,0,0.3,0.1,0.3,0.3c-1.6,5.4-26.3,87.4-15.7,162.6
				c0,0.5,0.8,0.7,1.1,0.2c4.1-8,22.6-43.8,41.4-61.6c0.2-0.2,0.6,0,0.6,0.3c0.6,10,10.1,115.7,136.2,172.9c0.2,0.1,0.4-0.1,0.3-0.3
				c-0.1-2.4-1.1-16.8-11.8-42.6c-0.2-0.3,0.2-0.6,0.5-0.5c7.6,2.7,71.4,29.8,59.4,184.8c0,0.1,0.1,0.2,0.2,0.2c1,0.4,7,2.8,16.3,0
				c0.1-0.1,0.3,0,0.3,0.1c1.2,4,21.1,63.4,125.4,110.8l0.1,0l0,0l0,0l0.1,0c104-47.9,123.5-107.5,124.8-111.4
				c0-0.1,0.2-0.2,0.3-0.2c9.3,2.8,15.4,0.4,16.3,0c0.1-0.1,0.1-0.1,0.1-0.3c-12.8-154.8,50.9-182.3,58.4-185.1
				c0.3-0.1,0.6,0.2,0.5,0.5c-10.6,25.8-11.5,40.1-11.6,42.6c0,0.2,0.2,0.3,0.4,0.2c125.8-57.9,134.7-163.5,135.3-173.5
				c0-0.3,0.4-0.5,0.6-0.2c18.9,17.8,37.7,53.5,41.7,61.4c0.3,0.4,1,0.3,1-0.2c10.2-75.2-14.7-157.1-16.5-162.5
				c-0.1-0.1,0-0.3,0.2-0.3L1160.6,95.4z M955.1-45.3L955.1-45.3L955.1-45.3L955.1-45.3L955.1-45.3z M683.6-5.3L683.6-5.3
				c0.1,0,0.2,0,0.3,0C708.4,18.1,755,40,782.2,40.1c27.2-0.1,73.7-22.2,98-45.8c0.1-0.1,0.2-0.1,0.3-0.1l0,0l0,0l0,0
				c0.1,0,0.2,0.1,0.1,0.3c-1.7,7.4-21.5,60.5-98.4,72.2c-76.9-11.3-97-64.4-98.7-71.8C683.5-5.1,683.5-5.2,683.6-5.3L683.6-5.3
				L683.6-5.3z M608.8-44.5L608.8-44.5L608.8-44.5L608.8-44.5L608.8-44.5L608.8-44.5z M491.2,150.6L491.2,150.6
				C498.7,21.5,608.4-44.5,608.5-44.6c0.1-0.1,0.3,0,0.3,0.1l0,0l0,0c-1.3,4.3-6.6,25.7,11.8,47.1C639.8,24.9,733.6,76.3,746,83l0,0
				l0,0l0,0l0,0l0,0l0,0l0,0l0,0l0,0l0,0c0.1,0.1,0.1,0.2,0.1,0.3c-14.1,31.4-44.6,46.5-49.4,47.5c-0.2,0.1-0.4-0.2-0.3-0.4
				c0.1-0.1,0.1-0.2,0.2-0.3l0,0c8.2-10.5,8.9-20.5,9-22.3c0-0.2-0.2-0.2-0.3-0.2c-47.8,13.6-91.4-0.6-97.2-4.3
				c-0.2-0.1-0.3-0.3-0.1-0.4c3-1.8,18.1-11,16.6-15.1c-0.3-0.8-2.3-2.7-5.4-5.1l0,0c-13.7-10.4-48.8-30.6-58.5-20.8
				c-10.7,10.7-19.5,36.7-21.2,41.9c-0.1,0.3,0.3,0.4,0.4,0.2c8.9-8.9,25.4-14.7,28.4-15.7c0.2-0.1,0.4,0.1,0.3,0.3
				c-14.7,34.5-7.9,80.8-7,85.8c0.1,0.2,0.3,0.2,0.4,0.1c40.9-36.7,80.2-32.7,86-31.9c0.2,0,0.3,0.3,0.1,0.4
				c-63.3,33-71.7,83-67.6,119.5l0-0.1c2.5,21.7,9.4,38.7,11.9,44.3c0,0,0,0.1,0.1,0.1c0.2,0.3,0.3,0.6,0.4,1c0.2,0.3,0.2,0.4,0,0.5
				c-0.1,0-0.3-0.1-0.4-0.2c-65.9-59.3-66.4-155.5-66.4-162.3c0-0.1-0.1-0.2-0.2-0.2c-0.1,0-0.2,0-0.2,0
				c-7.2,3.3-14.3,9.3-20.1,15.3l0,0c-7.4,7.7-13,15.4-14.5,17.6l0,0c0,0.1-0.1,0-0.1,0.1c0,0-0.1,0.1-0.1,0c-0.1,0-0.2-0.1-0.2-0.2
				c-0.1-4.7-0.2-9.5-0.2-14.1c0-2.9,0.2-5.8,0.3-8.7C491,153.7,491.1,152.1,491.2,150.6L491.2,150.6 M925.9,274.5L925.9,274.5
				c-0.2,2.4-5.9,69.8-22.2,105.4c-16.6,36.3-37.2,96.3-23.3,135.4l0,0c0.1,0.3,2,13.3-29.9,24.8c-25.7,9.3-55.7,23.6-66.9,29.1l0,0
				l0,0c0,0,0,0-0.1,0l0,0l0,0l0,0l0,0l0,0l0,0c0,0,0,0-0.1,0l0,0l0,0c-11.2-5.4-41.4-19.6-67.1-28.7c-31.9-11.3-30.1-24.4-30-24.7
				l0,0c13.7-39.2-7.1-99.1-23.9-135.3c-16.5-35.7-22.5-102.9-22.7-105.3c0,0,0-0.1-0.1-0.1c-13.2-16.6-27.8-32.7-24.6-45.1
				c3-11.5,7.1-25.9,10.9-37.6l0,0c0.5-1.5,0.9-2.9,1.4-4.3c7.4-21.4,20.2-26,37.9-17.9c6.7,3,13.9,8.3,20.4,13.7l0,0l0,0
				c7.4,6.2,13.9,12.7,17.1,16.1c1.3,1.3,0.5,1.3-0.5,0.7c-24.2-13.9-51.9-15.3-47.4-10.3c8.4,13.6,52.6,51.1,60.4,57.6
				c0.7,0.7,0.2,0.8-0.4,0.7c-28.9-5.6-60.4-20.6-64.2-22.4c-0.2-0.1-0.4,0.1-0.3,0.3c1.1,24.1,41,50.1,45.5,48.4
				c4.5-1.8,76.1-18.1,76.6-23.4c1.1-24.9-20.3-47.1-30.1-52.2c-8.8-4.7-14.3,5.6-15.4,7.7c-0.1,0.2-0.3,0.2-0.4,0.1
				c-3.2-4.7-5.6-10.9-7.3-16.5l-0.1,0l0,0c0,0,0,0,0.1,0l0.1,0c-2-6.3-3.1-11.7-3.4-13.3c-0.1-0.2,0.1-0.4,0.3-0.3
				c5.1,1.9,56.4,21.5,66.1,21.5c0,0,0,0,0.1,0c0,0,0,0,0.1,0c9.7-0.1,60.9-19.9,66-21.9c0.2-0.1,0.4,0,0.4,0.2
				c-0.3,1.6-1.3,7-3.4,13.3l0.1,0l0,0l0,0l-0.1,0c-1.8,5.5-4.1,11.7-7.2,16.5c-0.1,0.2-0.3,0.2-0.4,0c-1.1-2.1-6.6-12.4-15.4-7.6
				c-9.8,5.2-31.1,27.4-29.9,52.4c0.6,5.3,72.2,21.2,76.8,23c4.4,1.7,44.4-24.6,45.3-48.7c0-0.2-0.2-0.3-0.4-0.2
				c-3.7,1.9-35.2,17-64.1,22.7c-0.5,0.1-1.1,0-0.3-0.7c7.8-6.6,51.8-44.3,60.1-57.9c4.4-5-23.1-3.5-47.4,10.6
				c-0.9,0.5-1.7,0.5-0.5-0.8c3.2-3.4,9.6-9.8,17.1-16.1l0,0l0,0c6.5-5.5,13.6-10.8,20.3-13.7c17.8-8.1,30.5-3.6,38.1,17.8
				c0.4,1.4,1,2.8,1.5,4.3c0.5,0.3,0.8,0.5,1.2,0.7c-0.5-0.3-0.8-0.5-1.2-0.7c4,11.7,8,26,11.1,37.5
				C953.6,241.7,939.1,257.8,925.9,274.5z M1074.2,176.7c0,0.1-0.1,0.2-0.1,0.3l-0.1,0c-0.1,0-0.1,0-0.2,0l0,0
				c-1.6-2.2-7-9.9-14.6-17.5l0,0c-5.9-5.9-12.9-11.9-20.2-15.1c-0.1,0-0.2,0-0.2,0c-0.1,0.1-0.1,0.1-0.1,0.2
				c0.1,6.9,0.1,103.1-65.6,162.7c-0.1,0.1-0.3,0.3-0.4,0.3c-0.1,0-0.1-0.1,0.1-0.5c0.1-0.3,0.3-0.6,0.4-1l0-0.1
				c2.6-5.6,9.4-22.7,11.7-44.3l0,0.1c4-36.5-4.7-86.4-68.1-119.1c-0.2-0.1-0.2-0.4,0.1-0.5c5.7-0.8,45-5,86.1,31.5
				c0.2,0.1,0.4,0,0.4-0.2c0.8-4.9,7.4-51.3-7.5-85.8c-0.1-0.2,0-0.4,0.2-0.4c3,1,19.6,6.7,28.5,15.6c0.2,0.2,0.5,0.1,0.4-0.3
				c-1.7-5.2-10.7-31.1-21.5-41.8c-9.7-9.7-44.8,10.8-58.4,21.2l0,0c-3.1,2.4-5.1,4.2-5.4,5.1c-1.6,4.1,13.5,13.3,16.6,15
				c0.2,0.1,0.1,0.3,0,0.4c-5.7,3.7-49.3,18.2-97.1,4.8c-0.2,0-0.3,0.1-0.3,0.3c0.1,1.8,0.9,11.7,9.1,22.2l0,0
				c0.1,0.1,0.1,0.1,0.2,0.2c0.2,0.2,0.1,0.4-0.2,0.4c-4.7-1.1-35.3-16-49.5-47.3c-0.1-0.1-0.1-0.2,0-0.3l0,0l0,0l0,0l0,0l0,0l0,0
				l0,0l0,0l0,0l0,0c12.4-6.8,105.9-58.7,125-81c18.3-21.4,12.9-42.8,11.6-47.1l0,0l0,0c0-0.1,0.2-0.2,0.3-0.2
				c0.2,0.1,110.1,65.7,118.3,194.7l0,0l0,0l0,0l0,0c0.1,1.5,0.1,3.1,0.2,4.7c0.2,2.9,0.3,5.8,0.4,8.7
				C1074.3,167.2,1074.4,171.9,1074.2,176.7z"/>
		</g>
	</g>
</g>
</svg>
